<svg width="113" height="113" viewBox="0 0 113 113" fill="none" xmlns="http://www.w3.org/2000/svg">
<circle cx="56.5" cy="56.5" r="56.5" fill="#F8FAFF"/>
<path d="M56.9017 57.3212C63.6729 57.3212 69.0623 51.9318 69.0623 45.1606C69.0623 38.3894 63.6729 33 56.9017 33C50.1304 33 44.7411 38.3894 44.7411 45.1606C44.7411 52.07 50.1304 57.3212 56.9017 57.3212Z" fill="#93A0BC"/>
<path d="M75.6961 80.6746H38.1088C36.1741 80.6746 34.6541 79.0163 35.0686 77.2198C36.7269 66.7175 45.9855 58.5644 56.9024 58.5644C62.0154 58.5644 66.852 60.3608 70.7213 63.401C74.867 66.8557 77.9071 71.6923 78.8744 77.2198C79.1508 79.1545 77.6307 80.6746 75.6961 80.6746Z" fill="#93A0BC"/>
<path d="M75.6948 80.6754H50.4062C52.4791 71.1403 60.6322 63.9545 70.5818 63.2636C74.7274 66.7183 77.7676 71.5549 78.7349 77.0825C79.1495 79.1553 77.6294 80.6754 75.6948 80.6754Z" fill="#B9C5E0"/>
</svg>
