<svg width="883" height="883" viewBox="0 0 883 883" fill="none" xmlns="http://www.w3.org/2000/svg">
<path d="M0 293.423C0 131.37 131.37 0 293.423 0H589.576C751.63 0 883 131.37 883 293.423V589.576C883 751.63 751.63 883 589.576 883H293.423C131.37 883 0 751.63 0 589.576V293.423Z" fill="#1557FF"/>
<path d="M593.013 244.445H503.11C494.302 219.525 470.671 201.48 442.637 201.48C414.603 201.48 390.972 219.525 382.165 244.445H292.261C268.524 244.445 249.297 263.671 249.297 287.409V588.16C249.297 611.898 268.523 631.125 292.261 631.125H593.013C616.751 631.125 635.978 611.899 635.978 588.16V287.408C635.977 263.671 616.751 244.445 593.013 244.445ZM442.637 244.445C454.452 244.445 464.119 254.004 464.119 265.926C464.119 277.849 454.452 287.408 442.637 287.408C430.822 287.408 421.155 277.849 421.155 265.926C421.155 254.004 430.822 244.445 442.637 244.445ZM399.673 545.195L313.743 459.267L344.141 428.869L399.673 484.401L541.134 342.94L571.532 373.338L399.673 545.195Z" fill="white"/>
</svg>
